<?xml version="1.0" encoding="UTF-8"?>
<svg width="800" height="200" viewBox="0 0 800 200" xmlns="http://www.w3.org/2000/svg">
  <!-- "RETHINK" text -->
  <g transform="translate(0, 10)">
    <path d="M45 30 V150 H75 V95 H95 C120 95 135 85 135 65 C135 45 120 30 95 30 Z M75 60 H95 C100 60 105 62 105 65 C105 68 100 70 95 70 H75 Z" fill="#000000"/>
    <path d="M150 30 H270 V60 H180 V75 H260 V105 H180 V120 H270 V150 H150 Z" fill="#000000"/>
    <path d="M290 30 V150 H320 V105 H360 V150 H390 V30 H360 V75 H320 V30 Z" fill="#000000"/>
    <path d="M420 30 V150 H450 V30 Z" fill="#000000"/>
    <path d="M480 30 V150 H510 V75 L570 150 H600 V30 H570 V105 L510 30 Z" fill="#000000"/>
    <path d="M630 30 V150 H750 V120 H660 V30 Z" fill="#000000"/>
  </g>

  <!-- Shield with sword and brain -->
  <g transform="translate(600, 85) scale(0.7)">
    <!-- Brain -->
    <ellipse cx="0" cy="-95" rx="25" ry="20" fill="#ffffff" stroke="#000000" stroke-width="2"/>
    
    <!-- Shield -->
    <path d="M-30 -75 L30 -75 C30 15 30 60 0 90 L-30 90 C-60 60 -60 15 -60 -75 Z" fill="none" stroke="#000000" stroke-width="5"/>
    
    <!-- Colored stripes in shield -->
    <line x1="-50" y1="-70" x2="-50" y2="80" stroke="#ffcc00" stroke-width="8"/>
    <line x1="-40" y1="-70" x2="-40" y2="80" stroke="#000000" stroke-width="8"/>
    <line x1="-30" y1="-70" x2="-30" y2="80" stroke="#0066cc" stroke-width="8"/>
    <line x1="-20" y1="-70" x2="-20" y2="80" stroke="#ff0000" stroke-width="8"/>
    <line x1="-10" y1="-70" x2="-10" y2="80" stroke="#cccccc" stroke-width="8"/>
    <line x1="0" y1="-70" x2="0" y2="80" stroke="#00cc33" stroke-width="8"/>
    <line x1="10" y1="-70" x2="10" y2="80" stroke="#ffcc00" stroke-width="8"/>
    <line x1="20" y1="-70" x2="20" y2="80" stroke="#000000" stroke-width="8"/>
    
    <!-- Sword across shield -->
    <line x1="-100" y1="0" x2="100" y2="0" stroke="#000000" stroke-width="8"/>
    <path d="M-100 0 L-110 -5 L-120 0 L-110 5 Z" fill="#000000"/>
  </g>
  
  <!-- "mental health and wellness" text -->
  <text x="400" y="175" font-family="cursive, serif" font-size="26" font-style="italic" text-anchor="middle" fill="#000000">mental health and wellness</text>
</svg> 